Coordinates
version=1
nRows=27
nColumns=19
inDegrees=yes

Units are S.I. units (second, meters, Newtons, ...)
Angles are in degrees.

endheader
time	1_Force_X	1_Force_Y	1_Force_Z	1_Moment_X	1_Moment_Y	1_Moment_Z	1_COP_X	1_COP_Y	1_COP_Z	2_Force_X	2_Force_Y	2_Force_Z	2_Moment_X	2_Moment_Y	2_Moment_Z	2_COP_X	2_COP_Y	2_COP_Z
1.6225	-42.621	1065.425	-2.686	-0.260	0.000	0.386	40.921	1022.543	-64.192	-0.363	0.000	-0.024	0.00000	19.77398	0.00000	0.00000	-9.44852	0.00000
1.6250	-42.101	1062.988	-3.965	-0.260	0.000	0.385	39.920	1021.159	-64.850	-0.363	0.000	-0.023	0.00000	19.90590	0.00000	0.00000	-9.71148	0.00000
1.6275	-41.848	1060.028	-5.066	-0.260	0.000	0.386	39.437	1018.755	-64.502	-0.364	0.000	-0.023	0.00000	20.04925	0.00000	0.00000	-9.74148	0.00000
1.6300	-41.852	1058.280	-5.731	-0.260	0.000	0.386	38.433	1016.862	-64.635	-0.364	0.000	-0.023	0.00000	20.01754	0.00000	0.00000	-9.91154	0.00000
1.6325	-41.862	1056.544	-6.080	-0.260	0.000	0.386	37.820	1014.794	-64.634	-0.364	0.000	-0.022	0.00000	20.24167	0.00000	0.00000	-10.12717	0.00000
1.6350	-42.175	1055.496	-6.655	-0.259	0.000	0.386	36.641	1013.930	-64.762	-0.364	0.000	-0.022	0.00000	20.21418	0.00000	0.00000	-10.40857	0.00000
1.6375	-42.578	1052.887	-7.314	-0.259	0.000	0.387	35.725	1011.864	-64.894	-0.364	0.000	-0.021	0.00000	20.22815	0.00000	0.00000	-10.54048	0.00000
1.6400	-42.720	1050.276	-8.106	-0.259	0.000	0.387	35.112	1009.975	-64.631	-0.364	0.000	-0.021	0.00000	20.29556	0.00000	0.00000	-10.61106	0.00000
1.6425	-42.949	1046.099	-9.073	-0.259	0.000	0.387	34.281	1008.259	-64.453	-0.364	0.000	-0.020	0.00000	20.30430	0.00000	0.00000	-10.68877	0.00000
1.6450	-43.220	1043.656	-9.736	-0.259	0.000	0.387	34.154	1005.505	-64.931	-0.364	0.000	-0.020	0.00000	20.27750	0.00000	0.00000	-10.65217	0.00000
1.6475	-43.235	1039.647	-11.102	-0.259	0.000	0.388	34.021	1002.759	-64.575	-0.364	0.000	-0.019	0.00000	20.34950	0.00000	0.00000	-10.57536	0.00000
1.6500	-42.763	1035.448	-12.475	-0.259	0.000	0.388	33.928	999.502	-63.699	-0.364	0.000	-0.019	0.00000	20.29659	0.00000	0.00000	-10.43591	0.00000
1.6525	-42.681	1031.617	-13.225	-0.259	0.000	0.388	34.013	995.899	-63.254	-0.364	0.000	-0.019	0.00000	20.37990	0.00000	0.00000	-10.26519	0.00000
1.6550	-42.430	1028.996	-14.551	-0.259	0.000	0.389	33.446	993.663	-63.513	-0.364	0.000	-0.018	0.00000	20.47890	0.00000	0.00000	-10.34350	0.00000
1.6575	-42.444	1026.019	-15.791	-0.259	0.000	0.389	33.574	991.089	-63.109	-0.364	0.000	-0.017	0.00000	20.44305	0.00000	0.00000	-10.25127	0.00000
1.6600	-41.920	1022.180	-16.235	-0.258	0.000	0.390	33.789	986.457	-62.493	-0.364	0.000	-0.017	0.00000	20.55613	0.00000	0.00000	-10.00518	0.00000
1.6625	-41.440	1020.769	-16.420	-0.258	0.000	0.390	33.353	983.365	-62.574	-0.364	0.000	-0.016	0.00000	20.62401	0.00000	0.00000	-9.95960	0.00000
1.6650	-41.175	1018.491	-16.383	-0.258	0.000	0.391	33.220	980.103	-62.261	-0.363	0.000	-0.015	0.00000	20.60900	0.00000	0.00000	-9.89466	0.00000
1.6675	-41.048	1015.700	-16.648	-0.258	0.000	0.391	32.387	976.330	-61.560	-0.363	0.000	-0.015	0.00000	20.68320	0.00000	0.00000	-9.83895	0.00000
1.6700	-40.701	1012.373	-17.183	-0.258	0.000	0.391	32.685	971.875	-60.246	-0.364	0.000	-0.014	0.00000	20.63058	0.00000	0.00000	-9.57511	0.00000
1.6725	-40.655	1009.921	-17.278	-0.258	0.000	0.392	31.894	969.654	-59.147	-0.364	0.000	-0.014	0.00000	20.49627	0.00000	0.00000	-9.49462	0.00000
1.6750	-40.395	1007.647	-17.281	-0.258	0.000	0.392	30.884	968.974	-58.133	-0.363	0.000	-0.012	0.00000	20.53586	0.00000	0.00000	-9.60268	0.00000
1.6775	-39.730	1003.276	-17.640	-0.258	0.000	0.392	30.527	965.383	-56.515	-0.364	0.000	-0.012	0.00000	20.39499	0.00000	0.00000	-9.36267	0.00000
1.6800	-39.641	999.770	-17.339	-0.258	0.000	0.393	30.085	964.193	-55.417	-0.364	0.000	-0.012	0.00000	20.17947	0.00000	0.00000	-9.24364	0.00000
1.6825	-39.589	996.453	-16.767	-0.258	0.000	0.393	29.645	962.488	-54.406	-0.364	0.000	-0.011	0.00000	20.02711	0.00000	0.00000	-9.03920	0.00000
1.6850	-39.710	992.263	-15.975	-0.258	0.000	0.393	28.637	960.778	-53.792	-0.363	0.000	-0.010	0.00000	19.76818	0.00000	0.00000	-9.09116	0.00000
1.6875	-39.660	988.415	-15.449	-0.258	0.000	0.393	28.938	956.669	-52.651	-0.363	0.000	-0.010	0.00000	19.52393	0.00000	0.00000	-8.73506	0.00000
